<svg xmlns="http://www.w3.org/2000/svg" width="67" height="68" viewBox="0 0 67 68">
  <metadata><?xpacket begin="﻿" id="W5M0MpCehiHzreSzNTczkc9d"?>
<x:xmpmeta xmlns:x="adobe:ns:meta/" x:xmptk="Adobe XMP Core 5.6-c138 79.159824, 2016/09/14-01:09:01        ">
   <rdf:RDF xmlns:rdf="http://www.w3.org/1999/02/22-rdf-syntax-ns#">
      <rdf:Description rdf:about=""/>
   </rdf:RDF>
</x:xmpmeta>
                                                                                                    
                                                                                                    
                                                                                                    
                                                                                                    
                                                                                                    
                                                                                                    
                                                                                                    
                                                                                                    
                                                                                                    
                                                                                                    
                                                                                                    
                                                                                                    
                                                                                                    
                                                                                                    
                                                                                                    
                                                                                                    
                                                                                                    
                                                                                                    
                                                                                                    
                                                                                                    
                           
<?xpacket end="w"?></metadata>
<defs>
    <style>
      .cls-1 {
        fill: #58677f;
        fill-rule: evenodd;
      }
    </style>
  </defs>
  <path id="Forma_1" data-name="Forma 1" class="cls-1" d="M38.387,44.559c0-3.262-1.888-4.871-3.969-6.621l-1.7-1.325a2.584,2.584,0,0,1-1.228-2.032,3.326,3.326,0,0,1,1.325-2.315c1.983-1.561,3.97-3.214,3.97-6.712a7.97,7.97,0,0,0-3.356-6.382h2.93l3.023-1.7H29.641a12.882,12.882,0,0,0-8.462,2.6A8.494,8.494,0,0,0,18.156,26.4,7.475,7.475,0,0,0,26,33.826c0.474,0,.992-0.049,1.515-0.094a4.238,4.238,0,0,0-.471,1.843,4.958,4.958,0,0,0,1.418,3.213c-2.125.142-6.1,0.378-9.027,2.174a6.806,6.806,0,0,0-3.64,5.769c0,3.5,3.31,6.76,10.164,6.76C34.086,53.492,38.387,49,38.387,44.559ZM28.223,32.5c-4.066,0-5.91-5.247-5.91-8.413a5.453,5.453,0,0,1,1.04-3.5,4.419,4.419,0,0,1,3.311-1.563c3.924,0,5.956,5.3,5.956,8.7a4.78,4.78,0,0,1-1.182,3.453A4.852,4.852,0,0,1,28.223,32.5Zm0.048,19c-5.058,0-8.32-2.41-8.32-5.765s3.027-4.489,4.066-4.867a18.945,18.945,0,0,1,4.964-.758,7.518,7.518,0,0,1,1.085.048c3.595,2.552,5.151,3.828,5.151,6.24C35.219,49.332,32.809,51.505,28.272,51.505ZM38.813,35.377h5.119v5.115H46.49V35.377h5.116V32.82H46.49V27.7H43.932V32.82H38.813v2.557ZM66.954,34.1A33.256,33.256,0,1,0,33.7,67.354,33.256,33.256,0,0,0,66.954,34.1Zm-63.488,0A30.232,30.232,0,1,1,33.7,64.331,30.233,30.233,0,0,1,3.466,34.1Z"/>
</svg>
