<svg xmlns="http://www.w3.org/2000/svg" width="67" height="68" viewBox="0 0 67 68">
  <metadata><?xpacket begin="﻿" id="W5M0MpCehiHzreSzNTczkc9d"?>
<x:xmpmeta xmlns:x="adobe:ns:meta/" x:xmptk="Adobe XMP Core 5.6-c138 79.159824, 2016/09/14-01:09:01        ">
   <rdf:RDF xmlns:rdf="http://www.w3.org/1999/02/22-rdf-syntax-ns#">
      <rdf:Description rdf:about=""/>
   </rdf:RDF>
</x:xmpmeta>
                                                                                                    
                                                                                                    
                                                                                                    
                                                                                                    
                                                                                                    
                                                                                                    
                                                                                                    
                                                                                                    
                                                                                                    
                                                                                                    
                                                                                                    
                                                                                                    
                                                                                                    
                                                                                                    
                                                                                                    
                                                                                                    
                                                                                                    
                                                                                                    
                                                                                                    
                                                                                                    
                           
<?xpacket end="w"?></metadata>
<defs>
    <style>
      .cls-1 {
        fill: #58677f;
        fill-rule: evenodd;
      }
    </style>
  </defs>
  <path class="cls-1" d="M66.985,34.1A33.256,33.256,0,1,0,33.73,67.354,33.256,33.256,0,0,0,66.985,34.1ZM3.5,34.1A30.232,30.232,0,1,1,33.73,64.331,30.233,30.233,0,0,1,3.5,34.1Zm22.87-5.839H20.781a0.554,0.554,0,0,0-.508.508V46.54a0.554,0.554,0,0,0,.508.508h5.586a0.554,0.554,0,0,0,.508-0.508V28.767A0.554,0.554,0,0,0,26.367,28.259Zm-2.9-9.141a3.7,3.7,0,1,0,3.7,3.7A3.706,3.706,0,0,0,23.466,19.118Zm17.063,8.526a6.838,6.838,0,0,0-5.021,2.138V28.767A0.554,0.554,0,0,0,35,28.259H29.922a0.554,0.554,0,0,0-.508.508V46.54a0.554,0.554,0,0,0,.508.508h5.586a0.554,0.554,0,0,0,.508-0.508V37.4c0-3.01.627-3.917,2.721-3.917,2.28,0,2.357,1.968,2.357,4.425V46.54a0.6,0.6,0,0,0,.554.508h5.6A0.451,0.451,0,0,0,47.7,46.6v-9.9C47.7,32.219,46.844,27.644,40.529,27.644Z"/>
</svg>
