<svg xmlns="http://www.w3.org/2000/svg" width="68" height="68" viewBox="0 0 68 68">
  <metadata><?xpacket begin="﻿" id="W5M0MpCehiHzreSzNTczkc9d"?>
<x:xmpmeta xmlns:x="adobe:ns:meta/" x:xmptk="Adobe XMP Core 5.6-c138 79.159824, 2016/09/14-01:09:01        ">
   <rdf:RDF xmlns:rdf="http://www.w3.org/1999/02/22-rdf-syntax-ns#">
      <rdf:Description rdf:about=""/>
   </rdf:RDF>
</x:xmpmeta>
                                                                                                    
                                                                                                    
                                                                                                    
                                                                                                    
                                                                                                    
                                                                                                    
                                                                                                    
                                                                                                    
                                                                                                    
                                                                                                    
                                                                                                    
                                                                                                    
                                                                                                    
                                                                                                    
                                                                                                    
                                                                                                    
                                                                                                    
                                                                                                    
                                                                                                    
                                                                                                    
                           
<?xpacket end="w"?></metadata>
<defs>
    <style>
      .cls-1 {
        fill: #58677f;
        fill-rule: evenodd;
      }
    </style>
  </defs>
  <path id="Forma_1" data-name="Forma 1" class="cls-1" d="M48.021,27.486c0-.336,0-0.668-0.021-1a15.125,15.125,0,0,0,3.667-3.942A14.1,14.1,0,0,1,47.447,23.7a7.544,7.544,0,0,0,3.232-4.221,14.114,14.114,0,0,1-4.666,1.8,7.3,7.3,0,0,0-5.362-2.53A7.423,7.423,0,0,0,33.3,26.407a8.161,8.161,0,0,0,.191,1.775,20.688,20.688,0,0,1-15.147-8.369,8.242,8.242,0,0,0,2.274,10.5,7.048,7.048,0,0,1-3.329-1.019v0.1a7.8,7.8,0,0,0,5.9,7.733,6.946,6.946,0,0,1-1.935.263,6.788,6.788,0,0,1-1.382-.151A7.469,7.469,0,0,0,26.735,42.7a14.18,14.18,0,0,1-9.124,3.323,14.024,14.024,0,0,1-1.754-.112,19.823,19.823,0,0,0,11.265,3.53C40.633,49.45,48.021,37.69,48.021,27.486Zm19,6.612A33.256,33.256,0,1,0,33.761,67.354,33.256,33.256,0,0,0,67.016,34.1Zm-63.488,0A30.232,30.232,0,1,1,33.761,64.331,30.233,30.233,0,0,1,3.528,34.1Z"/>
</svg>
