<svg xmlns="http://www.w3.org/2000/svg" width="250" height="250" viewBox="0 0 250 250">
  <metadata><?xpacket begin="﻿" id="W5M0MpCehiHzreSzNTczkc9d"?>
<x:xmpmeta xmlns:x="adobe:ns:meta/" x:xmptk="Adobe XMP Core 5.6-c138 79.159824, 2016/09/14-01:09:01        ">
   <rdf:RDF xmlns:rdf="http://www.w3.org/1999/02/22-rdf-syntax-ns#">
      <rdf:Description rdf:about=""/>
   </rdf:RDF>
</x:xmpmeta>
                                                                                                    
                                                                                                    
                                                                                                    
                                                                                                    
                                                                                                    
                                                                                                    
                                                                                                    
                                                                                                    
                                                                                                    
                                                                                                    
                                                                                                    
                                                                                                    
                                                                                                    
                                                                                                    
                                                                                                    
                                                                                                    
                                                                                                    
                                                                                                    
                                                                                                    
                                                                                                    
                           
<?xpacket end="w"?></metadata>
<defs>
    <style>
      .cls-1 {
        fill: #fff;
        fill-rule: evenodd;
        opacity: 0.05;
      }
    </style>
  </defs>
  <path class="cls-1" d="M158.152,162.212a4.138,4.138,0,0,0-8.276,0v8.277a4.138,4.138,0,1,0,8.276,0v-8.277Zm-4.139,45.524a4.14,4.14,0,0,0-4.138,4.138v16.554a4.139,4.139,0,1,0,8.277,0V211.874A4.14,4.14,0,0,0,154.013,207.736Zm20.694-95.186a4.139,4.139,0,1,0-8.277,0v8.277a4.139,4.139,0,0,0,8.277,0V112.55Zm-16.555,24.831a4.138,4.138,0,1,0-8.276,0v8.277a4.138,4.138,0,0,0,8.276,0v-8.277Zm0,49.662a4.139,4.139,0,0,0-8.277,0v8.277a4.139,4.139,0,1,0,8.277,0v-8.277h0Zm16.555-49.662a4.139,4.139,0,0,0-8.277,0v8.277a4.139,4.139,0,0,0,8.277,0v-8.277ZM141.6,112.55a4.139,4.139,0,0,0-8.278,0v8.277a4.139,4.139,0,0,0,8.278,0V112.55Zm16.554,0a4.138,4.138,0,1,0-8.276,0v8.277a4.138,4.138,0,0,0,8.276,0V112.55Zm16.555-41.385V62.888a4.138,4.138,0,1,0-8.277,0v8.277A4.138,4.138,0,1,0,174.707,71.165ZM141.6,137.381a4.139,4.139,0,0,0-8.278,0v8.277a4.139,4.139,0,0,0,8.278,0v-8.277Zm49.664-74.493a4.139,4.139,0,1,0-8.277,0v8.277a4.139,4.139,0,1,0,8.277,0V62.888Zm-53.8,95.186a4.141,4.141,0,0,0-4.139,4.138v8.277a4.139,4.139,0,1,0,8.278,0v-8.277A4.141,4.141,0,0,0,137.459,158.074Zm70.357,28.969a4.139,4.139,0,0,0-8.277,0v8.277a4.139,4.139,0,1,0,8.277,0v-8.277h0Zm-4.138,20.693a4.14,4.14,0,0,0-4.139,4.138v16.554a4.139,4.139,0,1,0,8.277,0V211.874A4.14,4.14,0,0,0,203.678,207.736Zm16.555-49.662a4.14,4.14,0,0,0-4.139,4.138v8.277a4.139,4.139,0,1,0,8.277,0v-8.277A4.14,4.14,0,0,0,220.233,158.074ZM154.013,75.3a4.14,4.14,0,0,0,4.139-4.139V53.7l41.387-10.347V112.55a4.148,4.148,0,0,0,2.686,3.878l30.424,11.406v42.655a4.139,4.139,0,1,0,8.277,0V124.965a4.148,4.148,0,0,0-2.686-3.878l-30.424-11.4v-79.9a4.138,4.138,0,1,0-8.277,0v5.045L153.008,46.457a4.137,4.137,0,0,0-3.133,4.015V71.164A4.14,4.14,0,0,0,154.013,75.3Zm70.358,62.078a4.139,4.139,0,0,0-8.277,0v8.277a4.139,4.139,0,0,0,8.277,0v-8.277Zm-16.555,0a4.138,4.138,0,0,0-8.276,0v8.277a4.138,4.138,0,0,0,8.276,0v-8.277Zm-33.109,49.662a4.139,4.139,0,0,0-8.277,0v8.277a4.139,4.139,0,1,0,8.277,0v-8.277Zm33.109-24.831a4.138,4.138,0,0,0-8.276,0v8.277a4.138,4.138,0,1,0,8.276,0v-8.277Zm-37.248,45.524a4.14,4.14,0,0,0-4.138,4.138v16.554a4.139,4.139,0,1,0,8.277,0V211.874A4.14,4.14,0,0,0,170.568,207.736Zm4.139-45.524a4.139,4.139,0,0,0-8.277,0v8.277a4.139,4.139,0,1,0,8.277,0v-8.277Zm12.416,70.355a4.141,4.141,0,0,0,4.139-4.138V96a4.14,4.14,0,0,0-3.134-4.014L121.91,75.427a4.142,4.142,0,0,0-5.145,4.014v91.047a4.139,4.139,0,0,0,8.277,0V84.744l57.942,14.484v129.2A4.141,4.141,0,0,0,187.123,232.567ZM91.934,87.719a4.139,4.139,0,0,0-8.277,0V96a4.139,4.139,0,0,0,8.277,0V87.719Zm0-24.831a4.139,4.139,0,0,0-8.277,0v8.277a4.139,4.139,0,0,0,8.277,0V62.888ZM58.824,187.043a4.139,4.139,0,0,0-8.278,0v8.277a4.139,4.139,0,1,0,8.277,0v-8.277h0ZM21.576,149.8a4.14,4.14,0,0,0,4.139-4.138V124.965H67.1V228.428a4.139,4.139,0,1,0,8.277,0v-107.6a4.14,4.14,0,0,0-4.138-4.138H21.576a4.14,4.14,0,0,0-4.139,4.138v24.831A4.14,4.14,0,0,0,21.576,149.8ZM67.1,87.719V96a4.139,4.139,0,0,0,8.277,0V87.719A4.139,4.139,0,0,0,67.1,87.719ZM91.934,38.056a4.139,4.139,0,0,0-8.277,0v8.278a4.139,4.139,0,0,0,8.277,0V38.056ZM54.685,207.736a4.14,4.14,0,0,0-4.139,4.138v16.554a4.139,4.139,0,1,0,8.277,0V211.874A4.139,4.139,0,0,0,54.685,207.736Zm190.38,33.108h-8.278V215.425a16.555,16.555,0,1,0-8.277,0v25.419H125.043V223.872a20.694,20.694,0,1,0-8.278,0v16.972H25.715v-41.8a20.693,20.693,0,1,0-8.278,0v41.8H5.021a4.139,4.139,0,1,0,0,8.277H245.064A4.139,4.139,0,0,0,245.065,240.844ZM9.16,178.766a12.416,12.416,0,1,1,12.416,12.416A12.431,12.431,0,0,1,9.16,178.766ZM108.488,203.6A12.416,12.416,0,1,1,120.9,216.013,12.431,12.431,0,0,1,108.488,203.6Zm115.883-4.138a8.278,8.278,0,1,1,8.278,8.277A8.285,8.285,0,0,1,224.371,199.459ZM33.992,211.874v16.554a4.138,4.138,0,1,0,8.277,0V211.874A4.138,4.138,0,0,0,33.992,211.874Zm24.832-74.493a4.139,4.139,0,0,0-8.277,0v8.277a4.139,4.139,0,0,0,8.277,0v-8.277Zm0,24.831a4.139,4.139,0,0,0-8.277,0v8.277a4.139,4.139,0,1,0,8.277,0v-8.277ZM33.992,137.381v8.277a4.138,4.138,0,0,0,8.277,0v-8.277A4.138,4.138,0,0,0,33.992,137.381Zm57.941,24.831a4.139,4.139,0,0,0-8.277,0v8.277a4.139,4.139,0,1,0,8.277,0v-8.277Zm16.555-49.662a4.139,4.139,0,1,0-8.277,0v8.277a4.139,4.139,0,0,0,8.277,0V112.55Zm0-24.831a4.139,4.139,0,1,0-8.277,0V96a4.139,4.139,0,0,0,8.277,0V87.719Zm0,49.662a4.139,4.139,0,0,0-8.277,0v8.277a4.139,4.139,0,0,0,8.277,0v-8.277Zm-4.139,20.693a4.14,4.14,0,0,0-4.138,4.138v8.277a4.139,4.139,0,1,0,8.277,0v-8.277A4.14,4.14,0,0,0,104.349,158.074Zm4.139-95.186a4.139,4.139,0,1,0-8.277,0v8.277a4.139,4.139,0,1,0,8.277,0V62.888ZM91.934,187.043a4.139,4.139,0,0,0-8.277,0v8.277a4.139,4.139,0,1,0,8.277,0v-8.277ZM54.685,108.411a4.14,4.14,0,0,0,4.139-4.138V73.722l14.266-7.13a4.144,4.144,0,0,0,2.289-3.7V28.2L96.072,17.852,116.765,28.2V62.888a4.139,4.139,0,0,0,8.278,0V25.641a4.143,4.143,0,0,0-2.289-3.7L100.211,10.667V4.948a4.139,4.139,0,1,0-8.277,0v5.719L69.391,21.937a4.142,4.142,0,0,0-2.289,3.7V60.329L52.836,67.46a4.144,4.144,0,0,0-2.289,3.7v33.108A4.139,4.139,0,0,0,54.685,108.411Zm37.248,28.97a4.139,4.139,0,0,0-8.277,0v8.277a4.139,4.139,0,0,0,8.277,0v-8.277ZM87.8,207.736a4.14,4.14,0,0,0-4.139,4.138v16.554a4.139,4.139,0,1,0,8.277,0V211.874A4.14,4.14,0,0,0,87.8,207.736Zm20.693-169.68a4.139,4.139,0,0,0-8.277,0v8.278a4.139,4.139,0,1,0,8.277,0V38.056ZM91.934,112.55a4.139,4.139,0,1,0-8.277,0v8.277a4.139,4.139,0,0,0,8.277,0V112.55Z"/>
</svg>
