<svg xmlns="http://www.w3.org/2000/svg" width="186" height="193" viewBox="0 0 186 193">
  <metadata><?xpacket begin="﻿" id="W5M0MpCehiHzreSzNTczkc9d"?>
<x:xmpmeta xmlns:x="adobe:ns:meta/" x:xmptk="Adobe XMP Core 5.6-c138 79.159824, 2016/09/14-01:09:01        ">
   <rdf:RDF xmlns:rdf="http://www.w3.org/1999/02/22-rdf-syntax-ns#">
      <rdf:Description rdf:about=""/>
   </rdf:RDF>
</x:xmpmeta>
                                                                                                    
                                                                                                    
                                                                                                    
                                                                                                    
                                                                                                    
                                                                                                    
                                                                                                    
                                                                                                    
                                                                                                    
                                                                                                    
                                                                                                    
                                                                                                    
                                                                                                    
                                                                                                    
                                                                                                    
                                                                                                    
                                                                                                    
                                                                                                    
                                                                                                    
                                                                                                    
                           
<?xpacket end="w"?></metadata>
<defs>
    <style>
      .cls-1 {
        fill: #fff;
        fill-rule: evenodd;
        opacity: 0.04;
      }
    </style>
  </defs>
  <path id="Forma_1" data-name="Forma 1" class="cls-1" d="M93.186,43.913A49.556,49.556,0,0,0,43.714,93.439,48.936,48.936,0,0,0,54.3,123.972c1.366,1.741,2.8,3.409,4.321,5.173l0.083,0.1c4.649,5.4,9.456,10.985,11.252,17.563a30.74,30.74,0,0,1,.44,6.622v3.783a6.266,6.266,0,0,0,6.263,6.27h32.792a6.266,6.266,0,0,0,6.262-6.27v-3.827a26.775,26.775,0,0,1,.433-6.13c1.8-6.534,7.133-12.807,11.875-18.391l0.205-.241c1.369-1.609,2.662-3.13,3.839-4.629a48.932,48.932,0,0,0,10.594-30.553A49.555,49.555,0,0,0,93.186,43.913Zm29.032,72.324c-1.031,1.313-2.247,2.743-3.534,4.257l-0.252.3c-5.541,6.523-11.82,13.917-14.365,23.127a28.241,28.241,0,0,0-.862,7.023H82.9a29.8,29.8,0,0,0-.865-7.42c-2.547-9.332-8.815-16.614-13.853-22.466l-0.084-.1c-1.424-1.652-2.768-3.214-3.963-4.735a36.515,36.515,0,0,1-7.9-22.782,36.944,36.944,0,1,1,73.889,0A36.506,36.506,0,0,1,122.218,116.237ZM109.445,165.26H76.654a6.269,6.269,0,0,0,0,12.538h32.792A6.269,6.269,0,0,0,109.445,165.26Zm-8.2,14.3H84.852a6.27,6.27,0,0,0,0,12.539h16.395A6.27,6.27,0,0,0,101.247,179.56ZM179.6,87.17H158a6.269,6.269,0,0,0,0,12.538h21.6A6.269,6.269,0,0,0,179.6,87.17ZM34.638,93.439a6.266,6.266,0,0,0-6.263-6.269H6.769a6.269,6.269,0,0,0,0,12.538H28.375A6.266,6.266,0,0,0,34.638,93.439ZM93.185,34.833a6.266,6.266,0,0,0,6.263-6.27V6.93a6.263,6.263,0,1,0-12.525,0V28.564A6.266,6.266,0,0,0,93.185,34.833Zm50.252,100.049a6.266,6.266,0,1,0-8.858,8.865l15.278,15.3a6.266,6.266,0,1,0,8.857-8.865ZM42.924,51.992a6.266,6.266,0,1,0,8.858-8.864L36.51,27.834A6.266,6.266,0,1,0,27.652,36.7Zm0.007,82.89-15.278,15.3a6.266,6.266,0,1,0,8.858,8.865l15.278-15.3A6.266,6.266,0,1,0,42.93,134.882Zm96.082-81.054a6.242,6.242,0,0,0,4.429-1.836L158.714,36.7a6.265,6.265,0,1,0-8.856-8.865L134.584,43.127A6.269,6.269,0,0,0,139.012,53.828Z"/>
</svg>
