<svg xmlns="http://www.w3.org/2000/svg" width="156" height="223" viewBox="0 0 156 223">
  <metadata><?xpacket begin="﻿" id="W5M0MpCehiHzreSzNTczkc9d"?>
<x:xmpmeta xmlns:x="adobe:ns:meta/" x:xmptk="Adobe XMP Core 5.6-c138 79.159824, 2016/09/14-01:09:01        ">
   <rdf:RDF xmlns:rdf="http://www.w3.org/1999/02/22-rdf-syntax-ns#">
      <rdf:Description rdf:about=""/>
   </rdf:RDF>
</x:xmpmeta>
                                                                                                    
                                                                                                    
                                                                                                    
                                                                                                    
                                                                                                    
                                                                                                    
                                                                                                    
                                                                                                    
                                                                                                    
                                                                                                    
                                                                                                    
                                                                                                    
                                                                                                    
                                                                                                    
                                                                                                    
                                                                                                    
                                                                                                    
                                                                                                    
                                                                                                    
                                                                                                    
                           
<?xpacket end="w"?></metadata>
<defs>
    <style>
      .cls-1 {
        fill: #fff;
        fill-rule: evenodd;
        opacity: 0.04;
      }
    </style>
  </defs>
  <path id="Forma_1" data-name="Forma 1" class="cls-1" d="M155.708,125.874A25.884,25.884,0,0,0,141.5,102.791,25.653,25.653,0,0,0,147.5,85.266c-0.488-13.743-12.285-24.924-26.3-24.924H100.969V28.261a27.811,27.811,0,1,0-55.623,0V62.09A59.43,59.43,0,0,0,.323,119.684V163.5A59.384,59.384,0,0,0,59.615,222.84h53.132a21.844,21.844,0,0,0,22.087-20.955,21.583,21.583,0,0,0-3.741-13.008,25.839,25.839,0,0,0,9.15-39.326A25.894,25.894,0,0,0,155.708,125.874ZM57.386,28.261a15.771,15.771,0,1,1,31.543,0V60.342H59.616c-0.747,0-1.489.029-2.229,0.056V28.261h0Zm72.483,111.423h-54.7a6.025,6.025,0,0,0,0,12.05H119.96a13.811,13.811,0,0,1,0,27.622H75.169a6.025,6.025,0,0,0,0,12.049h37.955a9.689,9.689,0,0,1,9.677,10.051,9.967,9.967,0,0,1-10.054,9.334H59.615A47.325,47.325,0,0,1,12.363,163.5V119.683A47.325,47.325,0,0,1,59.615,72.391H121.2c7.605,0,14.005,5.967,14.265,13.3a13.805,13.805,0,0,1-13.79,14.32H75.168a6.025,6.025,0,0,0,0,12.05h54.7A13.811,13.811,0,0,1,129.869,139.684Z"/>
</svg>
